  0
SECTION
  2
HEADER
  9
$ACADVER
  1
AC1009
  9
$INSBASE
 10
0.0
 20
0.0
 30
0.0
  9
$EXTMIN
 10
-0.0128164049386896
 20
-0.0090630292066862
 30
-0.0015258207003583
  9
$EXTMAX
 10
214.00543286698581
 20
214.00804197672761
 30
0.0000000349246037
  9
$LIMMIN
 10
0.0
 20
0.0
  9
$LIMMAX
 10
420.0
 20
297.0
  9
$ORTHOMODE
 70
     0
  9
$REGENMODE
 70
     1
  9
$FILLMODE
 70
     1
  9
$QTEXTMODE
 70
     0
  9
$MIRRTEXT
 70
     0
  9
$DRAGMODE
 70
     2
  9
$LTSCALE
 40
1.0
  9
$OSMODE
 70
    39
  9
$ATTMODE
 70
     1
  9
$TEXTSIZE
 40
2.5
  9
$TRACEWID
 40
1.0
  9
$TEXTSTYLE
  7
STANDARD
  9
$CLAYER
  8
0
  9
$CELTYPE
  6
BYLAYER
  9
$CECOLOR
 62
   256
  9
$DIMSCALE
 40
1.0
  9
$DIMASZ
 40
2.5
  9
$DIMEXO
 40
0.625
  9
$DIMDLI
 40
3.75
  9
$DIMRND
 40
0.0
  9
$DIMDLE
 40
0.0
  9
$DIMEXE
 40
1.25
  9
$DIMTP
 40
0.0
  9
$DIMTM
 40
0.0
  9
$DIMTXT
 40
2.5
  9
$DIMCEN
 40
2.5
  9
$DIMTSZ
 40
0.0
  9
$DIMTOL
 70
     0
  9
$DIMLIM
 70
     0
  9
$DIMTIH
 70
     0
  9
$DIMTOH
 70
     0
  9
$DIMSE1
 70
     0
  9
$DIMSE2
 70
     0
  9
$DIMTAD
 70
     1
  9
$DIMZIN
 70
     8
  9
$DIMBLK
  1

  9
$DIMASO
 70
     1
  9
$DIMSHO
 70
     1
  9
$DIMPOST
  1

  9
$DIMAPOST
  1

  9
$DIMALT
 70
     0
  9
$DIMALTD
 70
     3
  9
$DIMALTF
 40
0.03937007874016
  9
$DIMLFAC
 40
1.0
  9
$DIMTOFL
 70
     1
  9
$DIMTVP
 40
0.0
  9
$DIMTIX
 70
     0
  9
$DIMSOXD
 70
     0
  9
$DIMSAH
 70
     0
  9
$DIMBLK1
  1

  9
$DIMBLK2
  1

  9
$DIMSTYLE
  2
ISO-25
  9
$DIMCLRD
 70
     0
  9
$DIMCLRE
 70
     0
  9
$DIMCLRT
 70
     0
  9
$DIMTFAC
 40
1.0
  9
$DIMGAP
 40
0.625
  9
$LUNITS
 70
     2
  9
$LUPREC
 70
     4
  9
$SKETCHINC
 40
1.0
  9
$FILLETRAD
 40
0.0
  9
$AUNITS
 70
     0
  9
$AUPREC
 70
     0
  9
$MENU
  1
.
  9
$ELEVATION
 40
0.0
  9
$PELEVATION
 40
0.0
  9
$THICKNESS
 40
0.0
  9
$LIMCHECK
 70
     0
  9
$BLIPMODE
 70
     0
  9
$CHAMFERA
 40
0.0
  9
$CHAMFERB
 40
0.0
  9
$SKPOLY
 70
     0
  9
$TDCREATE
 40
2456708.4170703362
  9
$TDUPDATE
 40
2456708.4179279399
  9
$TDINDWG
 40
0.0008583218
  9
$TDUSRTIMER
 40
0.0008583218
  9
$USRTIMER
 70
     1
  9
$ANGBASE
 50
0.0
  9
$ANGDIR
 70
     0
  9
$PDMODE
 70
     0
  9
$PDSIZE
 40
0.0
  9
$PLINEWID
 40
0.0
  9
$COORDS
 70
     0
  9
$SPLFRAME
 70
     0
  9
$SPLINETYPE
 70
     6
  9
$SPLINESEGS
 70
     8
  9
$ATTDIA
 70
     0
  9
$ATTREQ
 70
     1
  9
$HANDLING
 70
     1
  9
$HANDSEED
  5
16F
  9
$SURFTAB1
 70
     6
  9
$SURFTAB2
 70
     6
  9
$SURFTYPE
 70
     6
  9
$SURFU
 70
     6
  9
$SURFV
 70
     6
  9
$UCSNAME
  2

  9
$UCSORG
 10
0.0
 20
0.0
 30
0.0
  9
$UCSXDIR
 10
1.0
 20
0.0
 30
0.0
  9
$UCSYDIR
 10
0.0
 20
1.0
 30
0.0
  9
$PUCSNAME
  2

  9
$PUCSORG
 10
0.0
 20
0.0
 30
0.0
  9
$PUCSXDIR
 10
1.0
 20
0.0
 30
0.0
  9
$PUCSYDIR
 10
0.0
 20
1.0
 30
0.0
  9
$USERI1
 70
     0
  9
$USERI2
 70
     0
  9
$USERI3
 70
     0
  9
$USERI4
 70
     0
  9
$USERI5
 70
     0
  9
$USERR1
 40
0.0
  9
$USERR2
 40
0.0
  9
$USERR3
 40
0.0
  9
$USERR4
 40
0.0
  9
$USERR5
 40
0.0
  9
$WORLDVIEW
 70
     1
  9
$SHADEDGE
 70
     3
  9
$SHADEDIF
 70
    70
  9
$TILEMODE
 70
     1
  9
$MAXACTVP
 70
    64
  9
$PLIMCHECK
 70
     0
  9
$PEXTMIN
 10
0.0
 20
0.0
 30
0.0
  9
$PEXTMAX
 10
0.0
 20
0.0
 30
0.0
  9
$PLIMMIN
 10
0.0
 20
0.0
  9
$PLIMMAX
 10
12.0
 20
9.0
  9
$UNITMODE
 70
     0
  9
$VISRETAIN
 70
     1
  9
$PLINEGEN
 70
     0
  9
$PSLTSCALE
 70
     1
  0
ENDSEC
  0
SECTION
  2
TABLES
  0
TABLE
  2
VPORT
 70
     2
  0
VPORT
  2
*ACTIVE
 70
     0
 10
0.0
 20
0.0
 11
1.0
 21
1.0
 12
106.99630823102351
 22
106.99948947376041
 13
0.0
 23
0.0
 14
10.0
 24
10.0
 15
10.0
 25
10.0
 16
0.0
 26
0.0
 36
1.0
 17
0.0
 27
0.0
 37
0.0
 40
215.71117180017649
 41
2.087186261558784
 42
50.0
 43
0.0
 44
0.0
 50
0.0
 51
0.0
 71
     0
 72
  1000
 73
     1
 74
     3
 75
     0
 76
     0
 77
     0
 78
     0
  0
ENDTAB
  0
TABLE
  2
LTYPE
 70
     1
  0
LTYPE
  2
CONTINUOUS
 70
     0
  3
Solid line
 72
    65
 73
     0
 40
0.0
  0
ENDTAB
  0
TABLE
  2
LAYER
 70
     1
  0
LAYER
  2
0
 70
     0
 62
     7
  6
CONTINUOUS
  0
ENDTAB
  0
TABLE
  2
STYLE
 70
     1
  0
STYLE
  2
STANDARD
 70
     0
 40
0.0
 41
1.0
 50
0.0
 71
     0
 42
2.5
  3
txt
  4

  0
ENDTAB
  0
TABLE
  2
VIEW
 70
     1
  0
ENDTAB
  0
TABLE
  2
UCS
 70
     0
  0
ENDTAB
  0
TABLE
  2
APPID
 70
     2
  0
APPID
  2
ACAD
 70
     0
  0
APPID
  2
ACAD_PSEXT
 70
     0
  0
ENDTAB
  0
TABLE
  2
DIMSTYLE
 70
     1
  0
DIMSTYLE
  2
ISO-25
 70
     0
  3

  4

  5

  6

  7

 40
1.0
 41
2.5
 42
0.625
 43
3.75
 44
1.25
 45
0.0
 46
0.0
 47
0.0
 48
0.0
140
2.5
141
2.5
142
0.0
143
0.03937007874016
144
1.0
145
0.0
146
1.0
147
0.625
 71
     0
 72
     0
 73
     0
 74
     0
 75
     0
 76
     0
 77
     1
 78
     8
170
     0
171
     3
172
     1
173
     0
174
     0
175
     0
176
     0
177
     0
178
     0
  0
ENDTAB
  0
ENDSEC
  0
SECTION
  2
BLOCKS
  0
BLOCK
  8
0
  2
$MODEL_SPACE
 70
     0
 10
0.0
 20
0.0
 30
0.0
  3
$MODEL_SPACE
  1

  0
ENDBLK
  5
21
  8
0
  0
BLOCK
 67
     1
  8
0
  2
$PAPER_SPACE
 70
     0
 10
0.0
 20
0.0
 30
0.0
  3
$PAPER_SPACE
  1

  0
ENDBLK
  5
D5
 67
     1
  8
0
  0
ENDSEC
  0
SECTION
  2
ENTITIES
  0
CIRCLE
  5
125
  8
0
 10
107.00000014301609
 20
2.4999998223054258
 30
0.0
 40
1.500000000000034
  0
CIRCLE
  5
126
  8
0
 10
107.00000014301609
 20
211.4999998223054
 30
0.0
 40
1.499999999999988
  0
CIRCLE
  5
127
  8
0
 10
107.00000014301609
 20
106.9999998223054
 30
0.0
 40
2.0
  0
CIRCLE
  5
128
  8
0
 10
69.000000143016095
 20
163.4999998223054
 30
0.0
 40
2.0000000000000062
  0
CIRCLE
  5
129
  8
0
 10
2.5000001430160519
 20
211.4999998223054
 30
0.0
 40
1.4999999999999849
  0
LINE
  5
12A
  8
0
 10
50.000000143016109
 20
159.59999982230539
 30
0.0
 11
58.000000143016109
 21
159.59999982230539
 31
0.0
  0
LINE
  5
12B
  8
0
 10
58.000000143016109
 20
159.59999982230539
 30
0.0
 11
58.000000143016109
 21
177.59999982230539
 31
0.0
  0
LINE
  5
12C
  8
0
 10
58.000000143016109
 20
177.59999982230539
 30
0.0
 11
50.000000143016109
 21
177.59999982230539
 31
0.0
  0
LINE
  5
12D
  8
0
 10
50.000000143016109
 20
177.59999982230539
 30
0.0
 11
50.000000143016109
 21
159.59999982230539
 31
0.0
  0
LINE
  5
12E
  8
0
 10
83.000000143016109
 20
68.294051102482285
 30
0.0
 11
83.000000143016109
 21
147.3999998223054
 31
0.0
  0
ARC
  5
12F
  8
0
 10
82.000000143016109
 20
68.294051102482285
 30
0.0
 40
1.0
 50
206.8486913328363
 51
0.0
  0
ARC
  5
130
  8
0
 10
82.000000143016109
 20
147.3999998223054
 30
0.0
 40
1.0
 50
0.0
 51
90.0
  0
LINE
  5
131
  8
0
 10
82.000000143016109
 20
148.3999998223054
 30
0.0
 11
41.956294091294232
 21
148.3999998223054
 31
0.0
  0
ARC
  5
132
  8
0
 10
41.956294091294232
 20
147.3999998223054
 30
0.0
 40
1.0
 50
90.0
 51
206.8486913328363
  0
LINE
  5
133
  8
0
 10
0.0000001430160523
 20
213.9999998223054
 30
0.0
 11
0.0000001430160523
 21
201.49999982230551
 31
0.0
  0
LINE
  5
134
  8
0
 10
107.00000014301609
 20
213.9999998223054
 30
0.0
 11
0.0000001430160523
 21
213.9999998223054
 31
0.0
  0
LINE
  5
135
  8
0
 10
41.000000143016109
 20
160.3999998223054
 30
0.0
 11
46.000000143016109
 21
160.3999998223054
 31
0.0
  0
LINE
  5
136
  8
0
 10
46.000000143016109
 20
160.3999998223054
 30
0.0
 11
46.000000143016109
 21
166.59999982230539
 31
0.0
  0
LINE
  5
137
  8
0
 10
46.000000143016109
 20
166.59999982230539
 30
0.0
 11
41.000000143016109
 21
166.59999982230539
 31
0.0
  0
LINE
  5
138
  8
0
 10
41.000000143016109
 20
166.59999982230539
 30
0.0
 11
41.000000143016109
 21
160.3999998223054
 31
0.0
  0
LINE
  5
139
  8
0
 10
104.950000143016
 20
10.499999822305419
 30
0.0
 11
109.05000014301601
 21
10.499999822305419
 31
0.0
  0
LINE
  5
13A
  8
0
 10
109.05000014301601
 20
10.499999822305419
 30
0.0
 11
109.05000014301601
 21
15.499999822305419
 31
0.0
  0
LINE
  5
13B
  8
0
 10
109.05000014301601
 20
15.499999822305419
 30
0.0
 11
104.950000143016
 21
15.499999822305419
 31
0.0
  0
LINE
  5
13C
  8
0
 10
104.950000143016
 20
15.499999822305419
 30
0.0
 11
104.950000143016
 21
10.499999822305419
 31
0.0
  0
LINE
  5
13D
  8
0
 10
99.500000143016109
 20
160.3999998223054
 30
0.0
 11
114.50000014301609
 21
160.3999998223054
 31
0.0
  0
LINE
  5
13E
  8
0
 10
114.50000014301609
 20
160.3999998223054
 30
0.0
 11
114.50000014301609
 21
166.59999982230539
 31
0.0
  0
LINE
  5
13F
  8
0
 10
114.50000014301609
 20
166.59999982230539
 30
0.0
 11
99.500000143016109
 21
166.59999982230539
 31
0.0
  0
LINE
  5
140
  8
0
 10
99.500000143016109
 20
166.59999982230539
 30
0.0
 11
99.500000143016109
 21
160.3999998223054
 31
0.0
  0
LINE
  5
141
  8
0
 10
95.000000143016095
 20
142.9999998223054
 30
0.0
 11
95.000000143016095
 21
118.9999998223054
 31
0.0
  0
LINE
  5
142
  8
0
 10
95.000000143016095
 20
118.9999998223054
 30
0.0
 11
119.00000014301609
 21
118.9999998223054
 31
0.0
  0
LINE
  5
143
  8
0
 10
119.00000014301609
 20
118.9999998223054
 30
0.0
 11
119.00000014301609
 21
142.9999998223054
 31
0.0
  0
LINE
  5
144
  8
0
 10
119.00000014301609
 20
142.9999998223054
 30
0.0
 11
95.000000143016095
 21
142.9999998223054
 31
0.0
  0
LINE
  5
145
  8
0
 10
102.00000014301619
 20
-0.0000001776945737
 30
0.0
 11
107.00000014301609
 21
-0.0000001776945737
 31
0.0
  0
LINE
  5
146
  8
0
 10
107.00000014301609
 20
-0.0000001776945737
 30
0.0
 11
102.00000014301609
 21
-0.0000001776945737
 31
0.0
  0
LINE
  5
147
  8
0
 10
0.0000001430160523
 20
213.9999998223054
 30
0.0
 11
0.0000001430160523
 21
201.4999998223054
 31
0.0
  0
LINE
  5
148
  8
0
 10
0.0000001430160523
 20
201.4999998223054
 30
0.0
 11
102.00000014301609
 21
-0.0000001776945737
 31
0.0
  0
LINE
  5
149
  8
0
 10
41.064091761698137
 20
146.9483639036016
 30
0.0
 11
81.107797813420007
 21
67.842415183778542
 31
0.0
  0
CIRCLE
  5
14A
  8
0
 10
145.00000014301619
 20
163.4999998223054
 30
0.0
 40
2.0000000000000062
  0
CIRCLE
  5
14B
  8
0
 10
211.50000014301631
 20
211.4999998223054
 30
0.0
 40
1.4999999999999849
  0
LINE
  5
14C
  8
0
 10
164.00000014301619
 20
159.59999982230539
 30
0.0
 11
156.00000014301619
 21
159.59999982230539
 31
0.0
  0
LINE
  5
14D
  8
0
 10
156.00000014301619
 20
159.59999982230539
 30
0.0
 11
156.00000014301619
 21
177.59999982230539
 31
0.0
  0
LINE
  5
14E
  8
0
 10
156.00000014301619
 20
177.59999982230539
 30
0.0
 11
164.00000014301619
 21
177.59999982230539
 31
0.0
  0
LINE
  5
14F
  8
0
 10
164.00000014301619
 20
177.59999982230539
 30
0.0
 11
164.00000014301619
 21
159.59999982230539
 31
0.0
  0
LINE
  5
150
  8
0
 10
131.00000014301619
 20
68.294051102482285
 30
0.0
 11
131.00000014301619
 21
147.3999998223054
 31
0.0
  0
ARC
  5
151
  8
0
 10
132.00000014301619
 20
68.294051102482285
 30
0.0
 40
0.9999999999999998
 50
180.0
 51
333.15130866716521
  0
ARC
  5
152
  8
0
 10
132.00000014301619
 20
147.3999998223054
 30
0.0
 40
0.9999999999999998
 50
90.0
 51
180.0
  0
LINE
  5
153
  8
0
 10
132.00000014301619
 20
148.3999998223054
 30
0.0
 11
172.04370619473809
 21
148.3999998223054
 31
0.0
  0
ARC
  5
154
  8
0
 10
172.04370619473809
 20
147.3999998223054
 30
0.0
 40
0.9999999999999998
 50
333.15130866716521
 51
90.0
  0
LINE
  5
155
  8
0
 10
214.00000014301631
 20
213.9999998223054
 30
0.0
 11
214.00000014301631
 21
201.49999982230551
 31
0.0
  0
LINE
  5
156
  8
0
 10
107.00000014301619
 20
213.9999998223054
 30
0.0
 11
214.00000014301631
 21
213.9999998223054
 31
0.0
  0
LINE
  5
157
  8
0
 10
173.00000014301619
 20
160.3999998223054
 30
0.0
 11
168.00000014301619
 21
160.3999998223054
 31
0.0
  0
LINE
  5
158
  8
0
 10
168.00000014301619
 20
160.3999998223054
 30
0.0
 11
168.00000014301619
 21
166.59999982230539
 31
0.0
  0
LINE
  5
159
  8
0
 10
168.00000014301619
 20
166.59999982230539
 30
0.0
 11
173.00000014301619
 21
166.59999982230539
 31
0.0
  0
LINE
  5
15A
  8
0
 10
173.00000014301619
 20
166.59999982230539
 30
0.0
 11
173.00000014301619
 21
160.3999998223054
 31
0.0
  0
LINE
  5
15B
  8
0
 10
107.00000014301619
 20
-0.0000001776945737
 30
0.0
 11
112.00000014301619
 21
-0.0000001776945737
 31
0.0
  0
LINE
  5
15C
  8
0
 10
214.00000014301631
 20
213.9999998223054
 30
0.0
 11
214.00000014301631
 21
201.4999998223054
 31
0.0
  0
LINE
  5
15D
  8
0
 10
214.00000014301631
 20
201.4999998223054
 30
0.0
 11
112.00000014301619
 21
-0.0000001776945737
 31
0.0
  0
LINE
  5
15E
  8
0
 10
172.9359085243342
 20
146.9483639036016
 30
0.0
 11
132.8922024726123
 21
67.842415183778542
 31
0.0
  0
ENDSEC
  0
EOF
